<?xml version="1.0" encoding="UTF-8"?>
<svg width="752pt" height="752pt" version="1.1" viewBox="0 0 752 752" xmlns="http://www.w3.org/2000/svg">
 <defs>
  <clipPath id="b">
   <path d="m191 365h363v247.79h-363z"/>
  </clipPath>
  <clipPath id="a">
   <path d="m232 139.21h278v21.789h-278z"/>
  </clipPath>
 </defs>
 <path d="m535.65 332.25h-326.79c-9.6758 0-17.547 7.8672-17.559 17.539h361.9c-0.007812-9.6719-7.8828-17.539-17.559-17.539" fill="#fff" fill-rule="evenodd"/>
 <g clip-path="url(#b)">
  <path d="m191.3 372.63c0 62.219 39.812 116.68 99.07 135.51 3.1719 1.0117 5.3281 3.957 5.3281 7.2812v96.805h153.11v-96.805c0-3.3242 2.1523-6.2695 5.3242-7.2812 59.258-18.836 99.07-73.293 99.07-135.51v-7.5547h-361.9z" fill="#fff" fill-rule="evenodd"/>
 </g>
 <g clip-path="url(#a)">
  <path d="m232.96 160.98h276l0.17578-1.7188c0.55078-5.1797-1.0781-10.168-4.5625-14.047-3.4922-3.8672-8.2812-6-13.496-6h-240.24c-5.207 0-10 2.1328-13.488 5.9961-3.4883 3.875-5.1133 8.8711-4.5664 14.051z" fill="#fff" fill-rule="evenodd"/>
 </g>
 <path d="m492.63 316.98 14.73-140.72h-272.8l14.73 140.72z" fill="#fff" fill-rule="evenodd"/>
</svg>
